<svg width="80" height="80" viewBox="0 0 80 80" fill="none" xmlns="http://www.w3.org/2000/svg">
<path d="M12.6333 33.9C12.5141 33.8617 12.3859 33.8617 12.2666 33.9L11.6 34.8H23.3333C23.3994 34.7906 23.463 34.7681 23.5202 34.7337C23.5775 34.6994 23.6272 34.6539 23.6666 34.6L24.2333 33.7333V33.5667L12.6333 33.9Z" fill="#6AD6E3"/>
<path d="M7.73335 36.8667C7.67539 36.8419 7.61303 36.8291 7.55001 36.8291C7.48699 36.8291 7.42463 36.8419 7.36668 36.8667L6.70001 37.7333V37.9H22.0333C22.0983 37.9037 22.1626 37.8862 22.2167 37.8501C22.2709 37.814 22.3118 37.7614 22.3333 37.7L22.6 36.9333V36.7333L7.73335 36.8667Z" fill="#6AD6E3"/>
<path d="M15.3333 40C15.266 40.0051 15.2008 40.0258 15.143 40.0605C15.0851 40.0953 15.0361 40.143 15 40.2L14.5667 41V41.2H21.7333C21.7928 41.1929 21.8481 41.1661 21.8904 41.1238C21.9327 41.0814 21.9596 41.0261 21.9667 40.9667V40.2C21.9667 40.2 21.9667 39.9667 21.7667 39.9667L15.3333 40Z" fill="#6AD6E3"/>
<path d="M68.6334 29.7666C67.2793 28.8819 65.7612 28.2785 64.1693 27.9922C62.5774 27.7059 60.9442 27.7425 59.3667 28.1C57.5698 28.3565 55.8423 28.9692 54.2854 29.9022C52.7285 30.8352 51.3735 32.0697 50.3 33.5333C49.3099 34.7881 48.5534 36.2108 48.0667 37.7333H37.6C37.4279 37.7287 37.2586 37.7775 37.1154 37.873C36.9721 37.9685 36.8619 38.106 36.8 38.2666C36.3334 39.1 35.5667 40.8 35.1334 41.8C34.7 42.8 35.1334 42.7666 35.7334 42.7666H42C41.7434 43.189 41.4536 43.5902 41.1334 43.9666C40.4795 44.7693 39.6301 45.3903 38.6669 45.7697C37.7037 46.1492 36.659 46.2744 35.6334 46.1333C34.4054 45.9632 33.2814 45.3517 32.4716 44.413C31.6618 43.4744 31.2216 42.2729 31.2334 41.0333C31.1874 39.8014 31.4724 38.5796 32.0586 37.4951C32.6448 36.4107 33.5109 35.503 34.5667 34.8666C35.41 34.2509 36.4062 33.8786 37.4467 33.7904C38.4871 33.7023 39.5318 33.9016 40.4667 34.3666C41.0499 34.6646 41.5617 35.0853 41.9667 35.6C42.4 36.1 42.4334 36.0666 42.9334 35.9333L48.3667 34.5C48.7667 34.5 48.9 34.2333 48.7 33.9666C47.9399 32.0869 46.6262 30.4826 44.9334 29.3666C43.6789 28.5405 42.2707 27.976 40.793 27.7068C39.3153 27.4376 37.7985 27.4693 36.3334 27.8C32.6911 28.4024 29.4204 30.3839 27.2 33.3333C26.1325 34.6537 25.3406 36.1747 24.8711 37.8064C24.4016 39.4382 24.2641 41.1475 24.4667 42.8333C24.6005 44.2509 25.0354 45.6236 25.7425 46.8595C26.4496 48.0955 27.4125 49.1662 28.5667 50C29.8029 50.9279 31.2131 51.5979 32.7133 51.9701C34.2136 52.3423 35.7734 52.4092 37.3 52.1666C39.1565 51.9465 40.9473 51.3442 42.5594 50.3976C44.1715 49.451 45.57 48.1806 46.6667 46.6666C47.1925 45.9439 47.65 45.174 48.0334 44.3666C48.5743 46.3962 49.7406 48.2039 51.3667 49.5333C53.5891 51.3967 56.3999 52.4123 59.3 52.4C60.1334 52.4 61 52.4 61.9 52.1C64.8471 51.5182 67.5522 50.067 69.6667 47.9333C71.1178 46.5442 72.2096 44.8233 72.8483 42.9188C73.487 41.0143 73.6535 38.9831 73.3334 37C73.1395 35.52 72.6167 34.1021 71.8034 32.8505C70.9901 31.5988 69.907 30.5451 68.6334 29.7666ZM62.7 45.5333C61.8902 45.9682 60.9917 46.2123 60.0732 46.2469C59.1546 46.2816 58.2403 46.1059 57.4 45.7333C56.2658 45.2181 55.3462 44.3243 54.7989 43.2052C54.2515 42.0862 54.1105 40.8116 54.4 39.6C54.6614 38.2079 55.3351 36.9265 56.3336 35.922C57.3322 34.9175 58.6096 34.2363 60 33.9666C60.7221 33.7646 61.4788 33.7181 62.2202 33.8302C62.9616 33.9422 63.6707 34.2103 64.3008 34.6167C64.9309 35.0231 65.4676 35.5586 65.8754 36.1878C66.2833 36.817 66.553 37.5255 66.6667 38.2666C66.6863 38.6219 66.6863 38.978 66.6667 39.3333C66.6427 40.6323 66.2593 41.8992 65.5591 42.9936C64.8589 44.088 63.8693 44.9671 62.7 45.5333Z" fill="#6AD6E3"/>
</svg>
