<svg width="80" height="80" viewBox="0 0 80 80" fill="none" xmlns="http://www.w3.org/2000/svg">
<g clip-path="url(#clip0_10_32)">
<path d="M79.4562 39.0234L76.0469 36.9125C76.0203 36.6 75.9937 36.2984 75.9609 35.9938L78.8859 33.2594C79.0286 33.1259 79.1349 32.9582 79.1947 32.7722C79.2546 32.5862 79.2659 32.3879 79.2277 32.1963C79.1896 32.0047 79.1031 31.8259 78.9766 31.677C78.8501 31.5281 78.6876 31.4139 78.5047 31.3453L74.7547 29.9391C74.6703 29.6453 74.5859 29.3484 74.4937 29.0578L76.8375 25.8031C76.9515 25.6443 77.023 25.459 77.0454 25.2648C77.0677 25.0705 77.0401 24.8738 76.9651 24.6932C76.8902 24.5127 76.7704 24.3542 76.6171 24.2329C76.4638 24.1116 76.282 24.0314 76.089 24L72.1172 23.3516C71.9765 23.0813 71.8375 22.8125 71.6906 22.5469L73.3594 18.8875C73.4404 18.7094 73.4746 18.5136 73.4587 18.3186C73.4429 18.1236 73.3774 17.9359 73.2686 17.7733C73.1599 17.6106 73.0113 17.4785 72.8372 17.3894C72.663 17.3003 72.4689 17.2571 72.2734 17.2641L68.239 17.4063C68.0526 17.175 67.8646 16.9458 67.675 16.7188L68.5937 12.7875C68.6382 12.5971 68.6333 12.3985 68.5796 12.2105C68.526 12.0225 68.4252 11.8513 68.287 11.713C68.1487 11.5747 67.9775 11.474 67.7895 11.4203C67.6015 11.3667 67.4029 11.3618 67.2125 11.4063L63.2812 12.3328C63.0552 12.1422 62.826 11.9542 62.5937 11.7688L62.7359 7.73438C62.7442 7.53821 62.7021 7.34317 62.6136 7.16792C62.525 6.99266 62.393 6.84303 62.2302 6.73332C62.0673 6.62361 61.8791 6.55748 61.6834 6.54126C61.4877 6.52503 61.2912 6.55924 61.1125 6.64063L57.4531 8.31719C57.1875 8.17032 56.9172 8.02969 56.6484 7.89063L56 3.91876C55.9686 3.72579 55.8884 3.54404 55.7671 3.39072C55.6458 3.2374 55.4873 3.11759 55.3067 3.04264C55.1262 2.96769 54.9295 2.94008 54.7352 2.96242C54.541 2.98476 54.3557 3.05632 54.1968 3.17032L50.9375 5.50938C50.6469 5.41719 50.3515 5.33282 50.0562 5.24844L48.65 1.49844C48.5814 1.31548 48.4672 1.15304 48.3183 1.02651C48.1694 0.89998 47.9906 0.813539 47.799 0.775366C47.6074 0.737194 47.4091 0.748553 47.2231 0.808369C47.0371 0.868185 46.8694 0.974479 46.7359 1.11719L44.0015 4.04219C43.6968 4.00938 43.3906 3.98282 43.0828 3.95626L40.9765 0.543756C40.8736 0.377392 40.7298 0.240088 40.5589 0.144866C40.388 0.0496452 40.1956 -0.000335693 40 -0.000335693C39.8043 -0.000335693 39.6119 0.0496452 39.441 0.144866C39.2701 0.240088 39.1264 0.377392 39.0234 0.543756L36.9125 3.95313C36.6 3.97969 36.2984 4.00626 35.9937 4.03907L33.2593 1.11407C33.1259 0.971354 32.9582 0.86506 32.7722 0.805244C32.5861 0.745428 32.3879 0.734069 32.1963 0.772241C32.0046 0.810414 31.8259 0.896855 31.677 1.02339C31.5281 1.14992 31.4139 1.31235 31.3453 1.49532L29.939 5.24532C29.6437 5.33126 29.3468 5.41407 29.0547 5.50782L25.8015 3.16407C25.6427 3.05007 25.4574 2.97851 25.2632 2.95617C25.0689 2.93383 24.8722 2.96144 24.6917 3.03639C24.5111 3.11134 24.3526 3.23115 24.2313 3.38447C24.11 3.53779 24.0298 3.71954 23.9984 3.91251L23.35 7.88282C23.0797 8.02344 22.8109 8.16251 22.5437 8.30938L18.8875 6.64844C18.7088 6.56706 18.5122 6.53284 18.3165 6.54907C18.1209 6.5653 17.9326 6.63142 17.7698 6.74113C17.6069 6.85084 17.4749 7.00047 17.3864 7.17573C17.2978 7.35099 17.2557 7.54602 17.264 7.74219L17.4078 11.775C17.175 11.9609 16.939 12.1484 16.7172 12.3391L12.7875 11.4063C12.5971 11.3618 12.3985 11.3667 12.2105 11.4203C12.0224 11.474 11.8512 11.5747 11.713 11.713C11.5747 11.8513 11.474 12.0225 11.4203 12.2105C11.3666 12.3985 11.3618 12.5971 11.4062 12.7875L12.3328 16.7188C12.1406 16.9453 11.9531 17.1766 11.7672 17.4078L7.73435 17.2656C7.53896 17.2597 7.34525 17.3034 7.17123 17.3924C6.99722 17.4815 6.84855 17.6131 6.73904 17.775C6.63055 17.9378 6.56543 18.1255 6.54985 18.3205C6.53426 18.5154 6.56873 18.7112 6.64998 18.8891L8.3156 22.5469C8.16873 22.8125 8.02966 23.0828 7.88904 23.3531L3.91873 24C3.72576 24.0314 3.54401 24.1116 3.39069 24.2329C3.23737 24.3542 3.11756 24.5127 3.04261 24.6932C2.96766 24.8738 2.94005 25.0705 2.96239 25.2648C2.98473 25.459 3.05629 25.6443 3.17029 25.8031L5.51404 29.0563C5.42185 29.3484 5.33748 29.6453 5.25154 29.9406L1.50154 31.3469C1.31857 31.4155 1.15614 31.5297 1.02961 31.6786C0.903075 31.8275 0.816633 32.0062 0.778461 32.1979C0.740288 32.3895 0.751648 32.5877 0.811464 32.7737C0.87128 32.9598 0.977574 33.1275 1.12029 33.2609L4.04529 35.9953C4.01248 36.3 3.98591 36.6063 3.95935 36.9141L0.543725 39.0234C0.377361 39.1264 0.240057 39.2701 0.144836 39.4411C0.0496147 39.612 -0.000366211 39.8044 -0.000366211 40C-0.000366211 40.1957 0.0496147 40.3881 0.144836 40.559C0.240057 40.7299 0.377361 40.8736 0.543725 40.9766L3.9531 43.0875C3.97966 43.4 4.00623 43.7 4.03904 44.0047L1.11404 46.7391C0.971324 46.8726 0.86503 47.0402 0.805214 47.2263C0.745398 47.4123 0.734038 47.6105 0.772211 47.8022C0.810383 47.9938 0.896825 48.1725 1.02336 48.3214C1.14989 48.4704 1.31232 48.5845 1.49529 48.6531L5.24529 50.0594C5.33123 50.3547 5.41404 50.65 5.50779 50.9422L3.16404 54.1969C3.05004 54.3557 2.97848 54.541 2.95614 54.7353C2.9338 54.9295 2.96141 55.1262 3.03636 55.3068C3.11131 55.4873 3.23112 55.6458 3.38444 55.7671C3.53776 55.8884 3.71951 55.9686 3.91248 56L7.88435 56.6484C8.02497 56.9172 8.16404 57.1875 8.31091 57.4516L6.64998 61.1125C6.56873 61.2904 6.53426 61.4861 6.54985 61.6811C6.56543 61.8761 6.63055 62.0638 6.73904 62.2266C6.84534 62.3917 6.99338 62.5257 7.16817 62.6152C7.34295 62.7046 7.53828 62.7463 7.73435 62.7359L11.7703 62.5938C11.9547 62.825 12.1422 63.0542 12.3328 63.2813L11.4062 67.2125C11.3618 67.4029 11.3666 67.6015 11.4203 67.7895C11.474 67.9775 11.5747 68.1488 11.713 68.287C11.8512 68.4253 12.0224 68.526 12.2105 68.5797C12.3985 68.6333 12.5971 68.6382 12.7875 68.5938L16.7187 67.6672C16.9458 67.8578 17.1755 68.0458 17.4078 68.2313L17.264 72.2656C17.2571 72.4612 17.3002 72.6552 17.3894 72.8294C17.4785 73.0036 17.6106 73.1521 17.7732 73.2609C17.9359 73.3696 18.1236 73.4351 18.3186 73.4509C18.5136 73.4668 18.7094 73.4326 18.8875 73.3516L22.5484 71.6828C22.8125 71.8297 23.0828 71.9688 23.3515 72.1094L24 76.0813C24.0312 76.2743 24.1113 76.4562 24.2327 76.6096C24.354 76.7629 24.5125 76.8828 24.6932 76.9576C24.8739 77.0324 25.0707 77.0598 25.265 77.0372C25.4593 77.0145 25.6445 76.9426 25.8031 76.8281L29.0578 74.4844C29.3484 74.5781 29.6453 74.6609 29.9406 74.7469L31.3468 78.4969C31.4158 78.6796 31.5301 78.8417 31.6791 78.9679C31.828 79.0942 32.0066 79.1805 32.1981 79.2186C32.3896 79.2567 32.5876 79.2455 32.7736 79.1859C32.9595 79.1264 33.1272 79.0204 33.2609 78.8781L35.9953 75.9531C36.3 75.9859 36.6078 76.0125 36.914 76.0391L39.025 79.4484C39.1279 79.6148 39.2717 79.7521 39.4426 79.8473C39.6135 79.9426 39.8059 79.9925 40.0015 79.9925C40.1972 79.9925 40.3896 79.9426 40.5605 79.8473C40.7314 79.7521 40.8751 79.6148 40.9781 79.4484L43.089 76.0391C43.4015 76.0125 43.7031 75.9859 44.0078 75.9516L46.7422 78.8781C46.8758 79.0204 47.0436 79.1264 47.2295 79.1859C47.4154 79.2455 47.6135 79.2567 47.805 79.2186C47.9965 79.1805 48.1751 79.0942 48.324 78.9679C48.4729 78.8417 48.5873 78.6796 48.6562 78.4969L50.0625 74.7469C50.3578 74.6609 50.6531 74.5781 50.9453 74.4844L54.1984 76.8281C54.357 76.9426 54.5423 77.0145 54.7365 77.0372C54.9308 77.0598 55.1276 77.0324 55.3083 76.9576C55.489 76.8828 55.6475 76.7629 55.7689 76.6096C55.8902 76.4562 55.9703 76.2743 56.0015 76.0813L56.65 72.1094C56.9187 71.9688 57.189 71.8297 57.4547 71.6828L61.114 73.3516C61.2921 73.4326 61.4879 73.4668 61.6829 73.4509C61.8779 73.4351 62.0657 73.3696 62.2283 73.2609C62.3909 73.1521 62.523 73.0036 62.6122 72.8294C62.7013 72.6552 62.7444 72.4612 62.7375 72.2656L62.5953 68.2313C62.8265 68.0448 63.0557 67.8568 63.2828 67.6672L67.2125 68.5938C67.4029 68.6382 67.6015 68.6333 67.7895 68.5797C67.9775 68.526 68.1487 68.4253 68.287 68.287C68.4252 68.1488 68.526 67.9775 68.5796 67.7895C68.6333 67.6015 68.6382 67.4029 68.5937 67.2125L67.6672 63.2813C67.8578 63.0552 68.0458 62.826 68.2312 62.5938L72.2656 62.7359C72.4614 62.7447 72.6562 62.7023 72.8307 62.613C73.0052 62.5237 73.1535 62.3905 73.2609 62.2266C73.3696 62.064 73.435 61.8763 73.4509 61.6813C73.4668 61.4863 73.4326 61.2906 73.3515 61.1125L71.6828 57.4531C71.8297 57.1875 71.9687 56.9172 72.1094 56.6484L76.0812 56C76.2742 55.9686 76.4559 55.8884 76.6093 55.7671C76.7626 55.6458 76.8824 55.4873 76.9573 55.3068C77.0323 55.1262 77.0599 54.9295 77.0376 54.7353C77.0152 54.541 76.9437 54.3557 76.8297 54.1969L74.4859 50.9422C74.5781 50.65 74.6625 50.3547 74.7469 50.0594L78.4969 48.6531C78.6798 48.5845 78.8423 48.4704 78.9688 48.3214C79.0953 48.1725 79.1818 47.9938 79.2199 47.8022C79.2581 47.6105 79.2467 47.4123 79.1869 47.2263C79.1271 47.0402 79.0208 46.8726 78.8781 46.7391L75.9531 44.0047C75.9859 43.7 76.0125 43.3938 76.039 43.0875L79.4484 40.9766C79.6148 40.8736 79.7521 40.7299 79.8473 40.559C79.9425 40.3881 79.9925 40.1957 79.9925 40C79.9925 39.8044 79.9425 39.612 79.8473 39.4411C79.7521 39.2701 79.6148 39.1264 79.4484 39.0234H79.4562ZM55.8625 59.1922C55.2989 59.0712 54.7103 59.179 54.2262 59.492C53.7422 59.8049 53.4022 60.2974 53.2812 60.8609L52.0875 66.4344C48.2467 68.1742 44.0756 69.0646 39.8592 69.0447C35.6428 69.0247 31.4804 68.0949 27.6562 66.3188L26.4625 60.7469C26.4033 60.4684 26.2897 60.2043 26.1284 59.9697C25.9671 59.7351 25.7611 59.5346 25.5223 59.3796C25.2835 59.2246 25.0164 59.1183 24.7364 59.0665C24.4565 59.0148 24.169 59.0187 23.8906 59.0781L18.9672 60.1344C18.054 59.1919 17.2052 58.1891 16.4265 57.1328H40.3594C40.6281 57.1328 40.8109 57.0875 40.8109 56.8344V48.3672C40.8109 48.1219 40.6281 48.0688 40.3594 48.0688H33.3547L33.3625 42.7016H40.9375C41.6265 42.7016 44.6344 42.9016 45.5922 46.7438C45.8906 47.9234 46.5562 51.7656 47.0078 52.9938C47.4594 54.3719 49.289 57.1281 51.2422 57.1281H63.5937C62.766 58.2372 61.8606 59.2862 60.8844 60.2672L55.8625 59.1922ZM59.889 64.5813C59.889 65.0519 59.7496 65.512 59.4883 65.9034C59.227 66.2948 58.8555 66.6 58.4208 66.7805C57.9862 66.9609 57.5078 67.0086 57.0461 66.9173C56.5844 66.8261 56.1601 66.6 55.8268 66.2678C55.4934 65.9356 55.266 65.512 55.1732 65.0506C55.0805 64.5892 55.1265 64.1106 55.3056 63.6754C55.4846 63.2401 55.7886 62.8677 56.1792 62.6051C56.5697 62.3425 57.0293 62.2015 57.5 62.2H57.5687C58.1884 62.2175 58.7768 62.4761 59.2087 62.9209C59.6406 63.3656 59.8819 63.9613 59.8812 64.5813H59.889ZM24.6359 64.475C24.6356 64.9458 24.4957 65.406 24.2339 65.7974C23.9722 66.1887 23.6003 66.4937 23.1652 66.6737C22.7302 66.8538 22.2515 66.9008 21.7897 66.8089C21.3279 66.7169 20.9038 66.4902 20.5709 66.1572C20.2379 65.8243 20.0112 65.4002 19.9192 64.9384C19.8273 64.4766 19.8743 63.998 20.0544 63.5629C20.2344 63.1278 20.5394 62.7559 20.9307 62.4942C21.3221 62.2324 21.7823 62.0925 22.2531 62.0922H22.3234C22.9417 62.1125 23.5279 62.3725 23.958 62.8171C24.3881 63.2618 24.6284 63.8564 24.6281 64.475H24.6359ZM10.8703 36.5859L16 34.3047C16.2606 34.1892 16.4959 34.0235 16.6924 33.817C16.8889 33.6105 17.0428 33.3673 17.1453 33.1013C17.2477 32.8353 17.2967 32.5518 17.2895 32.2668C17.2823 31.9818 17.2189 31.7011 17.1031 31.4406L16.0453 29.0625H20.1953V47.7703H11.8203C10.7863 44.1382 10.4637 40.3405 10.8703 36.5859ZM9.11091 30.9516C9.11071 30.6389 9.1721 30.3292 9.29158 30.0402C9.41106 29.7512 9.58629 29.4886 9.80726 29.2673C10.0282 29.046 10.2906 28.8705 10.5795 28.7506C10.8683 28.6308 11.1779 28.569 11.4906 28.5688H11.5625C12.0304 28.582 12.484 28.7328 12.8666 29.0023C13.2493 29.2719 13.544 29.6482 13.714 30.0843C13.884 30.5204 13.9216 30.997 13.8223 31.4544C13.723 31.9118 13.491 32.3298 13.1555 32.6561C12.82 32.9825 12.3957 33.2027 11.9357 33.2892C11.4757 33.3758 11.0004 33.3249 10.5692 33.1428C10.138 32.9608 9.76996 32.6557 9.51115 32.2657C9.25235 31.8757 9.11422 31.4181 9.11404 30.95L9.11091 30.9516ZM33.3547 34.7781L33.3625 29.2594H43.2469C43.7594 29.2594 46.8515 29.8484 46.8515 32.1688C46.8515 34.0891 44.4781 34.7781 42.5265 34.7781H33.3547ZM62.3437 47.9234C60.8125 48.1 59.1203 47.2797 58.9062 46.3469C58.0031 41.2703 56.5015 40.1906 54.1297 38.3156C57.0765 36.4484 60.139 33.6844 60.139 29.9938C60.139 26.0063 57.4062 23.4953 55.5453 22.2625C52.9265 20.5438 50.0328 20.1953 49.2531 20.1953H18.175C22.4722 15.394 28.2326 12.1434 34.564 10.9469L38.2312 14.7906C38.4273 14.997 38.6623 15.1626 38.9227 15.2778C39.183 15.3931 39.4635 15.4557 39.7482 15.4621C40.0328 15.4684 40.3159 15.4185 40.5811 15.3151C40.8464 15.2116 41.0886 15.0568 41.2937 14.8594L45.3969 10.9531C49.5766 11.7361 53.5358 13.4195 56.9995 15.8865C60.4632 18.3535 63.3484 21.5449 65.4547 25.2391L62.6422 31.5781C62.4136 32.1053 62.4017 32.7013 62.609 33.2372C62.8163 33.7731 63.2262 34.206 63.75 34.4422L69.1547 36.8375C69.3231 38.5273 69.344 40.2285 69.2172 41.9219H66.2047C65.9062 41.9219 65.7843 42.1203 65.7843 42.4109V43.7891C65.7812 47.0313 63.9547 47.7469 62.3437 47.9234ZM37.5 9.40782C37.5012 8.77789 37.752 8.17413 38.1974 7.7287C38.6428 7.28328 39.2466 7.03249 39.8765 7.03126H39.9468C40.415 7.04416 40.869 7.19483 41.2519 7.46442C41.6349 7.734 41.9299 8.11053 42.0999 8.54689C42.27 8.98325 42.3076 9.46008 42.2081 9.91771C42.1085 10.3753 41.8763 10.7935 41.5403 11.1198C41.2043 11.4461 40.7796 11.6661 40.3193 11.7522C39.859 11.8384 39.3834 11.7869 38.9522 11.6042C38.521 11.4214 38.1532 11.1156 37.8949 10.725C37.6366 10.3343 37.4992 9.87615 37.5 9.40782ZM68.2562 33.4375C67.9435 33.4375 67.6339 33.3759 67.345 33.2562C67.0561 33.1366 66.7935 32.9612 66.5724 32.7401C66.3513 32.5189 66.1759 32.2564 66.0562 31.9675C65.9366 31.6786 65.875 31.369 65.875 31.0563C65.875 30.7435 65.9366 30.4339 66.0562 30.145C66.1759 29.8561 66.3513 29.5936 66.5724 29.3725C66.7935 29.1513 67.0561 28.9759 67.345 28.8563C67.6339 28.7366 67.9435 28.675 68.2562 28.675H68.325C68.9565 28.6841 69.5586 28.9437 69.9987 29.3968C70.4388 29.8498 70.681 30.4591 70.6719 31.0906C70.6627 31.7222 70.4031 32.3242 69.9501 32.7644C69.4971 33.2045 68.8878 33.4466 68.2562 33.4375Z" fill="#B25E0B"/>
</g>
<defs>
<clipPath id="clip0_10_32">
<rect width="80" height="80" fill="white"/>
</clipPath>
</defs>
</svg>
